<?xml version="1.0" standalone="no"?>
<!DOCTYPE svg PUBLIC "-//W3C//DTD SVG 20010904//EN"
 "http://www.w3.org/TR/2001/REC-SVG-20010904/DTD/svg10.dtd">
<svg version="1.0" xmlns="http://www.w3.org/2000/svg"
 width="512.000000pt" height="512.000000pt" viewBox="0 0 512.000000 512.000000"
 preserveAspectRatio="xMidYMid meet">
<metadata>
Created by potrace 1.11, written by Peter Selinger 2001-2013
</metadata>
<g transform="translate(0.000000,512.000000) scale(0.100000,-0.100000)"
fill="#000000" stroke="none">
<path d="M3635 5104 c-16 -8 -251 -235 -520 -505 l-490 -489 -55 56 c-87 88
-143 110 -213 80 -38 -15 -1983 -1955 -2064 -2057 -134 -171 -226 -368 -269
-581 -21 -107 -26 -350 -8 -460 91 -566 511 -1007 1070 -1122 103 -21 142 -24
284 -22 228 4 398 44 584 137 199 101 193 96 1264 1164 559 557 1012 1016
1022 1037 40 75 22 134 -69 222 l-60 60 491 490 c286 286 496 504 504 523 19
43 18 87 -2 126 -24 46 -1312 1327 -1351 1344 -42 17 -81 16 -118 -3z"/>
</g>
</svg>
